<html>
<head>
<meta charset="UTF-8">
<meta name="viewport" content="width=device-width, initial-scale=1.0"/>

<style>
.comment
{
    padding-left: 20px;
    margin-top: 4px;
    margin-right: 4px;
    margin-bottom: 4px;
    border: 2px #000 solid;
}
.submission
{
    border: 4px #00f solid;
    padding-left: 20px;
}
.hidden
{
    display: none;
}
</style>
</head>
<body><div class="submission" id="t3_7bref7">
    <p class="userinfo">
        <a href="https://www.reddit.com/u/MrWifeSteal007">MrWifeSteal007</a>
        <span class="score"> | 15 points</span>
        <span class="timestamp"> | Nov 09 2017 05:42:19</span>
    </p>
    <strong>[TV][60FPS] DCs Legends of Tomorrow S03E05 720p x265 HDTV x265 N0 M3rCy[707MB]</strong>
    <p><p><a href="http://links.snahp.it/748lot">link</a></p>
<p><strong>Other 60 FPS uploads</strong></p>
<p>Guardians of The Galaxy 2014 - <a href="https://www.reddit.com/r/megalinks/comments/69w0gl/movie_guardians_of_the_galaxy_2014_1080p_bluray/">Link</a></p>
<p>Batman Begins 2005 - <a href="https://www.reddit.com/r/megalinks/comments/6aim5u/movie_batman_begins_2005_1080p_bluray_x265_663gb/">Link</a></p>
<p>Dark knight Rises 2008 -<a href="https://www.reddit.com/r/megalinks/comments/6ajkuk/movie_the_dark_knight_rises_1080p_bluray_x265_888/">Link</a></p>
<p>The Dark Kight Rises 2012 - <a href="https://www.reddit.com/r/megalinks/comments/6ajkuk/movie_the_dark_knight_rises_1080p_bluray_x265_888/">Link</a></p>
<p><strong>General</strong>
Unique ID                                : 230064028719683146704500675287050140245 (0xAD14B85F460CDB4AE454E3F5C5B0BA55)
Complete name                            : DCs.Legends.of.Tomorrow.S03E05.720p[60FPS].x265.HDTV.x265-N0 M3rCy.mkv
Format                                   : Matroska
Format version                           : Version 4 / Version 2
File size                                : 708 MiB
Duration                                 : 41 min 36 s
Overall bit rate                         : 2 377 kb/s
Writing application                      : Lavf57.83.100
Writing library                          : Lavf57.83.100
ErrorDetectionType                       : Per level 1</p>
<p><strong>Video</strong>
ID                                       : 1
Format                                   : HEVC
Format/Info                              : High Efficiency Video Coding
Format profile                           : Main 10@L4@Main
Codec ID                                 : V_MPEGH/ISO/HEVC
Duration                                 : 41 min 36 s
Bit rate                                 : 1 946 kb/s
Width                                    : 1 276 pixels
Height                                   : 718 pixels
Display aspect ratio                     : 16:9
Frame rate mode                          : Constant
<strong>Frame rate                               : 59.940 (59940/1000) FPS</strong>
Standard                                 : Component
Color space                              : YUV
Chroma subsampling                       : 4:2:0
Bit depth                                : 8 bits
Bits/(Pixel*Frame)                       : 0.035
Stream size                              : 579 MiB (82%)
Default                                  : Yes
Forced                                   : No
Color range                              : Limited
Matrix coefficients                      : BT.709</p>
<p><strong>Audio</strong>
ID                                       : 2
Format                                   : AC-3
Format/Info                              : Audio Coding 3
Codec ID                                 : A_AC3
Duration                                 : 41 min 36 s
Bit rate mode                            : Constant
Bit rate                                 : 384 kb/s
Channel(s)                               : 6 channels
Channel positions                        : Front: L C R, Side: L R, LFE
Sampling rate                            : 48.0 kHz
Frame rate                               : 31.250 FPS (1536 SPF)
Bit depth                                : 16 bits
Compression mode                         : Lossy
Stream size                              : 114 MiB (16%)
Service kind                             : Complete Main
Default                                  : Yes
Forced                                   : No</p></p>
    <p class="toolbar">
        <a href="https://www.reddit.com/r/megalinks/comments/7bref7">permalink</a>
    </p>
</div>
<div class="comment" id="t1_dpk7pbz">
    <p class="userinfo">
        <a
        class="toggle_hide_button"
        href="javascript:void(0)"
        onclick="toggle_collapse(this.parentElement.parentElement)">[-]
        </a>
        <a href="https://www.reddit.com/u/SubZorro">SubZorro</a>
        <span class="score"> | 1 points</span>
        <span class="timestamp"> | Nov 09 2017 05:46:05</span>
    </p>
    <div class="collapsible">
        <h5>Subtitles for this episode:</h5>
<hr>
<blockquote>
<ul>
<li>
<p><strong>DCs.Legends.of.Tomorrow.S03E05.HDTV.x264-LOL</strong> - <code>1 CD</code> - <a href="http://dl.opensubtitles.org/en/download/vrf-cd235bd4/sub/7153048">Download Subtitle</a></p>
</li>
<li>
<p><strong>DCs.Legends.of.Tomorrow.S03E05.WEBRip.x264-RARBG</strong> - <code>1 CD</code> - <a href="http://dl.opensubtitles.org/en/download/vrf-2a5763e4/sub/7153320">Download Subtitle</a></p>
</li>
<li>
<p><strong>DCs.Legends.of.Tomorrow.S03E05.WEBRip.x264-RARBG_Subs_2</strong> - <code>1 CD</code> - <a href="http://dl.opensubtitles.org/en/download/vrf-100f3f59/sub/7153031">Download Subtitle</a></p>
</li>
<li>
<p><strong>DCs.Legends.of.Tomorrow.S03E05.HDTV.x264-KILLERS</strong> - <code>1 CD</code> - <a href="http://dl.opensubtitles.org/en/download/vrf-c901cd33/sub/7153251">Download Subtitle</a></p>
</li>
</ul>
</blockquote>
<hr>
<p>^This ^list ^of ^subtitles ^are ^taken ^from <a href="http://www.opensubtitles.org">^opensubtitles.org</a> ^| ^For ^feedback ^or ^suggestions ^contact <a href="http://www.reddit.com/message/compose/?to=indigo6alpha">^/u/indigo6alpha</a></p>
        <p class="toolbar">
            <a href="https://www.reddit.com/r/megalinks/comments/7bref7/_/dpk7pbz">permalink</a>
        </p>
        
    </div>
</div>
</body>

<script>
function toggle_collapse(comment_div)
{
    var button = comment_div.getElementsByClassName("toggle_hide_button")[0];
    var collapsible = comment_div.getElementsByClassName("collapsible")[0];
    if (collapsible.classList.contains("hidden"))
    {
        collapsible.classList.remove("hidden");
        button.innerText = "[-]";
    }
    else
    {
        collapsible.classList.add("hidden");
        button.innerText = "[+]";
    }
}
</script>
</html>
